STARTFONT 2.1
COMMENT converted Oberon font (using FontToBDF by R.Crelier 10.1.91)
FONT Syntax24b.Scn.Fnt
SIZE 24 75 75
FONTBOUNDINGBOX  26 27 0 -6
STARTPROPERTIES 3
FONT_ASCENT 21
FONT_DESCENT 6
DEFAULT_CHAR 0
ENDPROPERTIES
CHARS 122
STARTCHAR c0
ENCODING -1 0
SWIDTH 0 0
DWIDTH 0 0
BBX 0 0 0 0
BITMAP
ENDCHAR
STARTCHAR c9
ENCODING -1 9
SWIDTH 774 0
DWIDTH 24 0
BBX 0 0 0 0
BITMAP
ENDCHAR
STARTCHAR c32
ENCODING -1 32
SWIDTH 193 0
DWIDTH 6 0
BBX 0 0 0 0
BITMAP
ENDCHAR
STARTCHAR c33
ENCODING -1 33
SWIDTH 290 0
DWIDTH 9 0
BBX 5 19 2 0
BITMAP
F8
F8
F8
F8
F8
F8
F8
F8
F8
F8
F8
F8
00
00
00
F8
F8
F8
F8
ENDCHAR
STARTCHAR c34
ENCODING -1 34
SWIDTH 387 0
DWIDTH 12 0
BBX 9 8 2 11
BITMAP
F780
F780
E700
E700
E700
C600
C600
C600
ENDCHAR
STARTCHAR c35
ENCODING -1 35
SWIDTH 548 0
DWIDTH 17 0
BBX 15 19 1 0
BITMAP
1C70
1C70
1C70
1C70
1C70
FFFE
FFFE
FFFE
1C70
1C70
1C70
FFFE
FFFE
FFFE
1C70
1C70
1C70
1C70
1C70
ENDCHAR
STARTCHAR c36
ENCODING -1 36
SWIDTH 516 0
DWIDTH 16 0
BBX 14 23 1 -2
BITMAP
0180
0180
1FF0
7FFC
7FFC
F998
F980
F980
F980
FF80
7FE0
7FF8
1FF8
07FC
067C
067C
067C
667C
FFF8
FFF8
3FE0
0600
0600
ENDCHAR
STARTCHAR c37
ENCODING -1 37
SWIDTH 709 0
DWIDTH 22 0
BBX 20 19 1 0
BITMAP
3F0300
7F8300
F3C600
E1CC00
E1CC00
E1D800
F3D800
7FB000
3F3000
006000
00CFC0
00DFE0
01BCF0
01B870
033870
033870
063CF0
0C1FE0
0C0FC0
ENDCHAR
STARTCHAR c38
ENCODING -1 38
SWIDTH 580 0
DWIDTH 18 0
BBX 17 19 1 0
BITMAP
0FC000
1FF000
3E7000
3E7000
3E7000
1FE000
0FC000
078000
1FC700
1FE700
7DF700
78FF00
F87E00
F83C00
F81E00
FC7F00
7FFF80
7FF780
1FC300
ENDCHAR
STARTCHAR c39
ENCODING -1 39
SWIDTH 225 0
DWIDTH 7 0
BBX 4 8 2 11
BITMAP
F0
F0
E0
E0
E0
C0
C0
C0
ENDCHAR
STARTCHAR c40
ENCODING -1 40
SWIDTH 322 0
DWIDTH 10 0
BBX 8 27 1 -6
BITMAP
02
07
0E
1C
38
38
70
70
70
E0
E0
E0
E0
E0
E0
E0
E0
E0
70
70
70
38
38
1C
0E
07
02
ENDCHAR
STARTCHAR c41
ENCODING -1 41
SWIDTH 322 0
DWIDTH 10 0
BBX 8 27 1 -6
BITMAP
40
E0
70
38
1C
1C
0E
0E
0E
07
07
07
07
07
07
07
07
07
0E
0E
0E
1C
1C
38
70
E0
40
ENDCHAR
STARTCHAR c42
ENCODING -1 42
SWIDTH 548 0
DWIDTH 17 0
BBX 15 14 1 0
BITMAP
1830
1C70
0C60
0EE0
06C0
0380
FFFE
FFFE
0380
06C0
0EE0
0C60
1C70
1830
ENDCHAR
STARTCHAR c43
ENCODING -1 43
SWIDTH 516 0
DWIDTH 16 0
BBX 14 16 1 -1
BITMAP
0300
0300
0300
0300
0300
0300
0300
FFFC
FFFC
0300
0300
0300
0300
0300
0300
0300
ENDCHAR
STARTCHAR c44
ENCODING -1 44
SWIDTH 258 0
DWIDTH 8 0
BBX 5 9 2 -4
BITMAP
F8
F8
F8
F0
F0
F0
E0
E0
E0
ENDCHAR
STARTCHAR c45
ENCODING -1 45
SWIDTH 322 0
DWIDTH 10 0
BBX 8 2 1 6
BITMAP
FF
FF
ENDCHAR
STARTCHAR c46
ENCODING -1 46
SWIDTH 258 0
DWIDTH 8 0
BBX 5 5 2 0
BITMAP
F8
F8
F8
F8
F8
ENDCHAR
STARTCHAR c47
ENCODING -1 47
SWIDTH 451 0
DWIDTH 14 0
BBX 12 20 1 -1
BITMAP
0070
0070
00E0
00E0
01C0
01C0
0380
0380
0700
0700
0E00
0E00
1C00
1C00
3800
3800
7000
7000
E000
E000
ENDCHAR
STARTCHAR c48
ENCODING -1 48
SWIDTH 516 0
DWIDTH 16 0
BBX 15 19 0 0
BITMAP
07C0
1FF0
3FF8
7FFC
7C7C
F83E
F83E
F83E
F83E
F83E
F83E
F83E
F83E
F83E
7C7C
7FFC
3FF8
1FF0
07C0
ENDCHAR
STARTCHAR c49
ENCODING -1 49
SWIDTH 516 0
DWIDTH 16 0
BBX 11 19 0 0
BITMAP
03E0
07E0
0FE0
3FE0
7FE0
FBE0
73E0
23E0
03E0
03E0
03E0
03E0
03E0
03E0
03E0
03E0
03E0
03E0
03E0
ENDCHAR
STARTCHAR c50
ENCODING -1 50
SWIDTH 516 0
DWIDTH 16 0
BBX 14 19 0 0
BITMAP
1FE0
FFF8
FFF8
70FC
007C
007C
007C
00F8
00F8
01F0
03F0
07C0
0FC0
1F00
3E00
7800
FFFC
FFFC
FFFC
ENDCHAR
STARTCHAR c51
ENCODING -1 51
SWIDTH 516 0
DWIDTH 16 0
BBX 13 19 1 0
BITMAP
1FC0
FFF0
FFF0
61F8
00F8
00F8
00F8
01F0
3FE0
3F80
3FE0
01F0
00F8
00F8
00F8
61F8
FFF0
FFF0
1FC0
ENDCHAR
STARTCHAR c52
ENCODING -1 52
SWIDTH 516 0
DWIDTH 16 0
BBX 16 19 0 0
BITMAP
01F8
03F8
07F8
07F8
0EF8
1EF8
3CF8
38F8
78F8
F0F8
E0F8
FFFF
FFFF
FFFF
00F8
00F8
00F8
00F8
00F8
ENDCHAR
STARTCHAR c53
ENCODING -1 53
SWIDTH 516 0
DWIDTH 16 0
BBX 14 19 1 0
BITMAP
7FF8
7FF8
7FF8
7800
7800
F800
FFC0
FFF0
FFF8
E0F8
007C
007C
007C
007C
00F8
61F8
FFF0
FFE0
3F80
ENDCHAR
STARTCHAR c54
ENCODING -1 54
SWIDTH 516 0
DWIDTH 16 0
BBX 15 19 0 0
BITMAP
01FE
0FFE
0FFE
3F80
3E00
7C00
7C00
F9F0
FBFC
FFFC
FC7E
F83E
F83E
F83E
783E
7C7C
3FFC
1FF8
07E0
ENDCHAR
STARTCHAR c55
ENCODING -1 55
SWIDTH 516 0
DWIDTH 16 0
BBX 14 19 0 0
BITMAP
FFF8
FFF8
FFFC
007C
00F8
00F8
01F0
01F0
03E0
03E0
07C0
07C0
0F80
0F80
1F00
1F00
3E00
3E00
3E00
ENDCHAR
STARTCHAR c56
ENCODING -1 56
SWIDTH 516 0
DWIDTH 16 0
BBX 15 19 0 0
BITMAP
1FF0
7FFC
7FFC
FC3E
F81E
F81E
F81C
FC3C
7FF0
3FF8
1FFC
787E
703E
F03E
F03E
F87E
7FFC
7FFC
1FF0
ENDCHAR
STARTCHAR c57
ENCODING -1 57
SWIDTH 516 0
DWIDTH 16 0
BBX 15 19 0 0
BITMAP
0FC0
3FF0
7FF8
7C7C
F83C
F83E
F83E
F83E
FC7E
7FFE
7FBE
1F3E
007C
007C
00F8
03F8
FFE0
FFE0
FF00
ENDCHAR
STARTCHAR c58
ENCODING -1 58
SWIDTH 290 0
DWIDTH 9 0
BBX 5 14 2 0
BITMAP
F8
F8
F8
F8
F8
00
00
00
00
F8
F8
F8
F8
F8
ENDCHAR
STARTCHAR c59
ENCODING -1 59
SWIDTH 290 0
DWIDTH 9 0
BBX 5 18 2 -4
BITMAP
F8
F8
F8
F8
F8
00
00
00
00
F8
F8
F8
F0
F0
F0
E0
E0
E0
ENDCHAR
STARTCHAR c60
ENCODING -1 60
SWIDTH 516 0
DWIDTH 16 0
BBX 14 14 1 0
BITMAP
000C
003C
00F0
03C0
0F00
3C00
F000
F000
3C00
0F00
03C0
00F0
003C
000C
ENDCHAR
STARTCHAR c61
ENCODING -1 61
SWIDTH 516 0
DWIDTH 16 0
BBX 14 6 1 4
BITMAP
FFFC
FFFC
0000
0000
FFFC
FFFC
ENDCHAR
STARTCHAR c62
ENCODING -1 62
SWIDTH 516 0
DWIDTH 16 0
BBX 14 14 1 0
BITMAP
C000
F000
3C00
0F00
03C0
00F0
003C
003C
00F0
03C0
0F00
3C00
F000
C000
ENDCHAR
STARTCHAR c63
ENCODING -1 63
SWIDTH 387 0
DWIDTH 12 0
BBX 12 19 0 0
BITMAP
3F80
FFE0
FFE0
63F0
01F0
01F0
01F0
03E0
07E0
0FC0
1F80
1F00
1F00
1F00
0000
1F00
1F00
1F00
1F00
ENDCHAR
STARTCHAR c64
ENCODING -1 64
SWIDTH 741 0
DWIDTH 23 0
BBX 21 21 1 -2
BITMAP
00FC00
03FF00
0F03C0
1C00E0
380070
707E70
71FE38
E3DE38
E39E38
E79E38
E79E38
E79E38
E79E38
E7FE30
E3EE30
71CE60
700FE0
380780
3E0000
0FF800
03F800
ENDCHAR
STARTCHAR c65
ENCODING -1 65
SWIDTH 580 0
DWIDTH 18 0
BBX 18 19 0 0
BITMAP
03F800
03F800
07F800
07FC00
077C00
0F7C00
0F7E00
1E3E00
1E3E00
1E3F00
3C1F00
3FFF00
3FFF80
7FFF80
7C1F80
7C1FC0
F80FC0
F80FC0
F80FC0
ENDCHAR
STARTCHAR c66
ENCODING -1 66
SWIDTH 548 0
DWIDTH 17 0
BBX 14 19 2 0
BITMAP
FFE0
FFF8
FFF8
F8FC
F87C
F87C
F878
F8F8
FFE0
FFE0
FFF8
F8F8
F87C
F87C
F87C
F8FC
FFF8
FFF8
FFE0
ENDCHAR
STARTCHAR c67
ENCODING -1 67
SWIDTH 483 0
DWIDTH 15 0
BBX 14 19 1 0
BITMAP
03F8
0FF8
3FF8
3F00
7C00
7C00
FC00
F800
F800
F800
F800
F800
FC00
7C00
7C00
3F1C
3FFC
0FFC
03E0
ENDCHAR
STARTCHAR c68
ENCODING -1 68
SWIDTH 645 0
DWIDTH 20 0
BBX 17 19 2 0
BITMAP
FFE000
FFF800
FFFE00
F87E00
F81F00
F81F00
F81F80
F80F80
F80F80
F80F80
F80F80
F80F80
F81F80
F81F00
F81F00
F87E00
FFFE00
FFF800
FFE000
ENDCHAR
STARTCHAR c69
ENCODING -1 69
SWIDTH 516 0
DWIDTH 16 0
BBX 13 19 2 0
BITMAP
FFF8
FFF8
FFF8
FFF8
F800
F800
F800
FFF8
FFF8
FFF8
FFF8
F800
F800
F800
F800
FFF8
FFF8
FFF8
FFF8
ENDCHAR
STARTCHAR c70
ENCODING -1 70
SWIDTH 483 0
DWIDTH 15 0
BBX 13 19 2 0
BITMAP
FFF8
FFF8
FFF8
FFF8
F800
F800
F800
FFF8
FFF8
FFF8
FFF8
F800
F800
F800
F800
F800
F800
F800
F800
ENDCHAR
STARTCHAR c71
ENCODING -1 71
SWIDTH 580 0
DWIDTH 18 0
BBX 16 19 1 0
BITMAP
03FE
0FFE
3FFE
3F00
7C00
7C00
FC00
F800
F800
F81F
F81F
F81F
FC1F
7C1F
7C1F
3F1F
3FFF
0FFF
03F8
ENDCHAR
STARTCHAR c72
ENCODING -1 72
SWIDTH 612 0
DWIDTH 19 0
BBX 15 19 2 0
BITMAP
F83E
F83E
F83E
F83E
F83E
F83E
F83E
FFFE
FFFE
FFFE
FFFE
F83E
F83E
F83E
F83E
F83E
F83E
F83E
F83E
ENDCHAR
STARTCHAR c73
ENCODING -1 73
SWIDTH 290 0
DWIDTH 9 0
BBX 5 19 2 0
BITMAP
F8
F8
F8
F8
F8
F8
F8
F8
F8
F8
F8
F8
F8
F8
F8
F8
F8
F8
F8
ENDCHAR
STARTCHAR c74
ENCODING -1 74
SWIDTH 290 0
DWIDTH 9 0
BBX 7 19 0 0
BITMAP
3E
3E
3E
3E
3E
3E
3E
3E
3E
3E
3E
3E
3E
3E
3E
3E
FC
FC
F0
ENDCHAR
STARTCHAR c75
ENCODING -1 75
SWIDTH 548 0
DWIDTH 17 0
BBX 15 19 2 0
BITMAP
F81E
F81E
F83C
F878
F878
F8F0
F9E0
F9E0
FB80
FFE0
FBE0
F9F0
F9F0
F8F8
F8F8
F87C
F87C
F83E
F83E
ENDCHAR
STARTCHAR c76
ENCODING -1 76
SWIDTH 451 0
DWIDTH 14 0
BBX 11 19 2 0
BITMAP
F800
F800
F800
F800
F800
F800
F800
F800
F800
F800
F800
F800
F800
F800
F800
FFE0
FFE0
FFE0
FFE0
ENDCHAR
STARTCHAR c77
ENCODING -1 77
SWIDTH 806 0
DWIDTH 25 0
BBX 25 19 0 0
BITMAP
3FC1FE00
3FC1FE00
3FC1FE00
3FC1FE00
3FE3FE00
7BE3DF00
7BE3DF00
7BE3DF00
7BE79F00
7BF79F00
79F79F00
79F79F00
71F71F00
F1FF0F80
F1FF0F80
F0FF0F80
F0FE0F80
F0FE0F80
F0FE0F80
ENDCHAR
STARTCHAR c78
ENCODING -1 78
SWIDTH 645 0
DWIDTH 20 0
BBX 16 19 2 0
BITMAP
FF0F
FF0F
FF0F
FF8F
F78F
F78F
F78F
F7CF
F3CF
F3CF
F3CF
F3EF
F1EF
F1EF
F1EF
F1FF
F0FF
F0FF
F0FF
ENDCHAR
STARTCHAR c79
ENCODING -1 79
SWIDTH 645 0
DWIDTH 20 0
BBX 18 19 1 0
BITMAP
03F000
0FFC00
3FFF00
3E1F00
7C0F80
7C0F80
F807C0
F807C0
F807C0
F807C0
F807C0
F807C0
F807C0
7C0F80
7C0F80
3E1F00
3FFF00
0FFC00
03F000
ENDCHAR
STARTCHAR c80
ENCODING -1 80
SWIDTH 516 0
DWIDTH 16 0
BBX 14 19 2 0
BITMAP
FFE0
FFF8
FFF8
F8FC
F87C
F87C
F87C
F8FC
FFF8
FFF8
FFE0
F800
F800
F800
F800
F800
F800
F800
F800
ENDCHAR
STARTCHAR c81
ENCODING -1 81
SWIDTH 645 0
DWIDTH 20 0
BBX 19 24 1 -5
BITMAP
03F000
0FFC00
3FFF00
3E1F00
7C0F80
7C0F80
F807C0
F807C0
F807C0
F807C0
F807C0
F807C0
F807C0
7C0F80
7C0F80
3E1F00
3FFF00
0FFC00
03F800
007F00
001F80
000FE0
0003C0
000100
ENDCHAR
STARTCHAR c82
ENCODING -1 82
SWIDTH 548 0
DWIDTH 17 0
BBX 15 19 2 0
BITMAP
FFE0
FFF8
FFF8
F8FC
F87C
F87C
F87C
F8F8
FFF8
FFE0
FF80
FBE0
F9F0
F9F8
F8F8
F8FC
F87C
F87E
F83E
ENDCHAR
STARTCHAR c83
ENCODING -1 83
SWIDTH 483 0
DWIDTH 15 0
BBX 13 19 1 0
BITMAP
0FF8
3FF8
7FF8
7C00
F800
F800
FE00
7F80
7FE0
3FF0
0FF0
03F8
00F8
00F8
00F8
01F0
7FF0
7FE0
7F80
ENDCHAR
STARTCHAR c84
ENCODING -1 84
SWIDTH 483 0
DWIDTH 15 0
BBX 15 19 0 0
BITMAP
FFFE
FFFE
FFFE
FFFE
07C0
07C0
07C0
07C0
07C0
07C0
07C0
07C0
07C0
07C0
07C0
07C0
07C0
07C0
07C0
ENDCHAR
STARTCHAR c85
ENCODING -1 85
SWIDTH 612 0
DWIDTH 19 0
BBX 15 19 2 0
BITMAP
F81E
F81E
F81E
F81E
F81E
F81E
F81E
F81E
F81E
F81E
F81E
F81E
F81E
F81E
FC3E
7FFC
7FFC
3FF8
0FE0
ENDCHAR
STARTCHAR c86
ENCODING -1 86
SWIDTH 516 0
DWIDTH 16 0
BBX 16 19 0 0
BITMAP
F80F
F80F
F80F
FC1E
7C1E
7C1E
7C1C
3C3C
3E3C
3E38
3E38
1E38
1F70
1F70
1F70
0FF0
0FE0
0FE0
0FE0
ENDCHAR
STARTCHAR c87
ENCODING -1 87
SWIDTH 838 0
DWIDTH 26 0
BBX 26 19 0 0
BITMAP
F81F83C0
F81F83C0
F81F83C0
781F8380
7C3BC380
7C3BC780
7C3BC780
3C7BC700
3C73C700
3C73E700
3E71EF00
3EF1EE00
1EE1EE00
1EE1EE00
1EE1FE00
1FE1FE00
0FC0FC00
0FC0FC00
0FC0FC00
ENDCHAR
STARTCHAR c88
ENCODING -1 88
SWIDTH 516 0
DWIDTH 16 0
BBX 16 19 0 0
BITMAP
FC0F
FC0F
7E1F
7E1E
3F3C
3F3C
1F78
0FF0
0FF0
07E0
0FF0
0FF0
1EF8
3CFC
3CFC
787E
F87E
F03F
F03F
ENDCHAR
STARTCHAR c89
ENCODING -1 89
SWIDTH 419 0
DWIDTH 13 0
BBX 13 19 0 0
BITMAP
F878
F878
F8F8
F8F8
7CF0
7DF0
3DE0
3FE0
1FC0
1FC0
0F80
0F80
0F80
0F80
0F80
0F80
0F80
0F80
0F80
ENDCHAR
STARTCHAR c90
ENCODING -1 90
SWIDTH 483 0
DWIDTH 15 0
BBX 13 19 1 0
BITMAP
FFF8
FFF8
FFF8
00F8
01F0
03F0
03E0
07C0
07C0
0F80
1F00
1F00
3E00
7E00
7C00
F800
FFF8
FFF8
FFF8
ENDCHAR
STARTCHAR c91
ENCODING -1 91
SWIDTH 322 0
DWIDTH 10 0
BBX 7 25 2 -5
BITMAP
FE
FE
E0
E0
E0
E0
E0
E0
E0
E0
E0
E0
E0
E0
E0
E0
E0
E0
E0
E0
E0
E0
E0
FE
FE
ENDCHAR
STARTCHAR c92
ENCODING -1 92
SWIDTH 451 0
DWIDTH 14 0
BBX 12 20 1 -1
BITMAP
E000
E000
7000
7000
3800
3800
1C00
1C00
0E00
0E00
0700
0700
0380
0380
01C0
01C0
00E0
00E0
0070
0070
ENDCHAR
STARTCHAR c93
ENCODING -1 93
SWIDTH 322 0
DWIDTH 10 0
BBX 7 25 1 -5
BITMAP
FE
FE
0E
0E
0E
0E
0E
0E
0E
0E
0E
0E
0E
0E
0E
0E
0E
0E
0E
0E
0E
0E
0E
FE
FE
ENDCHAR
STARTCHAR c94
ENCODING -1 94
SWIDTH 516 0
DWIDTH 16 0
BBX 14 16 1 0
BITMAP
0300
0780
0FC0
1B60
3B70
7338
E31C
4308
0300
0300
0300
0300
0300
0300
0300
0300
ENDCHAR
STARTCHAR c95
ENCODING -1 95
SWIDTH 483 0
DWIDTH 15 0
BBX 13 2 1 -2
BITMAP
FFF8
FFF8
ENDCHAR
STARTCHAR c96
ENCODING -1 96
SWIDTH 451 0
DWIDTH 14 0
BBX 6 5 3 15
BITMAP
F0
70
38
18
0C
ENDCHAR
STARTCHAR c97
ENCODING -1 97
SWIDTH 451 0
DWIDTH 14 0
BBX 14 14 0 0
BITMAP
0FE0
7FF0
7FF8
70F8
00F8
0FF8
7FF8
7FF8
F8F8
F8F8
F8F8
FFFC
7F7C
3E7C
ENDCHAR
STARTCHAR c98
ENCODING -1 98
SWIDTH 516 0
DWIDTH 16 0
BBX 15 20 1 0
BITMAP
F800
F800
F800
F800
F800
F800
F9E0
F7F8
FFFC
FFFC
FC7E
F83E
F83E
F83E
F83E
F87C
F8FC
FFF8
FFF0
FFC0
ENDCHAR
STARTCHAR c99
ENCODING -1 99
SWIDTH 354 0
DWIDTH 11 0
BBX 11 14 0 0
BITMAP
07C0
1FC0
3FC0
7C00
7800
F800
F800
F800
F800
F800
7C40
7FE0
3FE0
0F80
ENDCHAR
STARTCHAR c100
ENCODING -1 100
SWIDTH 516 0
DWIDTH 16 0
BBX 15 20 0 0
BITMAP
003E
003E
003E
003E
003E
003E
07FE
1FFE
3FFE
7E3E
7C3E
F83E
F83E
F83E
F83E
FC7E
7FFE
7FFE
3FDE
0F1E
ENDCHAR
STARTCHAR c101
ENCODING -1 101
SWIDTH 451 0
DWIDTH 14 0
BBX 13 14 0 0
BITMAP
07C0
1FF0
3FF0
7C78
7878
FFF8
FFF8
FFF8
F800
F800
7C30
7FF8
3FF8
0FC0
ENDCHAR
STARTCHAR c102
ENCODING -1 102
SWIDTH 290 0
DWIDTH 9 0
BBX 9 20 0 0
BITMAP
0F80
1F80
3F80
3E00
3E00
3E00
FF80
FF80
FF80
3E00
3E00
3E00
3E00
3E00
3E00
3E00
3E00
3E00
3E00
3E00
ENDCHAR
STARTCHAR c103
ENCODING -1 103
SWIDTH 451 0
DWIDTH 14 0
BBX 14 20 0 -6
BITMAP
0FFC
3FFC
3FF0
7C78
7C78
3FF0
3FF0
0FC0
7800
FF00
FFE0
7FF8
0FF8
38FC
707C
F07C
F8FC
FFF8
7FF0
1FC0
ENDCHAR
STARTCHAR c104
ENCODING -1 104
SWIDTH 516 0
DWIDTH 16 0
BBX 14 20 1 0
BITMAP
F800
F800
F800
F800
F800
F800
F9F0
FBF8
FFFC
FFFC
FC7C
F87C
F87C
F87C
F87C
F87C
F87C
F87C
F87C
F87C
ENDCHAR
STARTCHAR c105
ENCODING -1 105
SWIDTH 225 0
DWIDTH 7 0
BBX 5 19 1 0
BITMAP
F8
F8
F8
00
00
F8
F8
F8
F8
F8
F8
F8
F8
F8
F8
F8
F8
F8
F8
ENDCHAR
STARTCHAR c106
ENCODING -1 106
SWIDTH 225 0
DWIDTH 7 0
BBX 6 25 0 -6
BITMAP
7C
7C
7C
00
00
7C
7C
7C
7C
7C
7C
7C
7C
7C
7C
7C
7C
7C
7C
7C
7C
7C
F8
F8
E0
ENDCHAR
STARTCHAR c107
ENCODING -1 107
SWIDTH 483 0
DWIDTH 15 0
BBX 14 20 1 0
BITMAP
F800
F800
F800
F800
F800
F800
F87C
F87C
F8F8
F9F0
F9E0
FBC0
FF80
FFE0
FBF0
F9F0
F9F8
F8F8
F8FC
F87C
ENDCHAR
STARTCHAR c108
ENCODING -1 108
SWIDTH 225 0
DWIDTH 7 0
BBX 5 20 1 0
BITMAP
F8
F8
F8
F8
F8
F8
F8
F8
F8
F8
F8
F8
F8
F8
F8
F8
F8
F8
F8
F8
ENDCHAR
STARTCHAR c109
ENCODING -1 109
SWIDTH 806 0
DWIDTH 25 0
BBX 23 14 1 0
BITMAP
F9F0F8
FBF9FC
FFFFFE
FFFFFE
FC7E3E
F87C3E
F87C3E
F87C3E
F87C3E
F87C3E
F87C3E
F87C3E
F87C3E
F87C3E
ENDCHAR
STARTCHAR c110
ENCODING -1 110
SWIDTH 516 0
DWIDTH 16 0
BBX 14 14 1 0
BITMAP
F9F0
FBF8
FFFC
FFFC
FC7C
F87C
F87C
F87C
F87C
F87C
F87C
F87C
F87C
F87C
ENDCHAR
STARTCHAR c111
ENCODING -1 111
SWIDTH 483 0
DWIDTH 15 0
BBX 15 14 0 0
BITMAP
0FE0
3FF8
7FFC
7C7C
F83E
F83E
F83E
F83E
F83E
F83E
7C7C
7FFC
3FF8
0FE0
ENDCHAR
STARTCHAR c112
ENCODING -1 112
SWIDTH 516 0
DWIDTH 16 0
BBX 15 20 1 -6
BITMAP
F1E0
F7F8
FFFC
FFFC
FC7E
F83E
F83E
F83E
F83E
F87C
F8FC
FFF8
FFF0
FFC0
F800
F800
F800
F800
F800
F800
ENDCHAR
STARTCHAR c113
ENCODING -1 113
SWIDTH 516 0
DWIDTH 16 0
BBX 15 20 0 -6
BITMAP
07FE
1FFE
3FFE
7E3E
7C3E
F83E
F83E
F83E
F83E
FC7E
7FFE
7FFE
3FDE
0F3E
003E
003E
003E
003E
003E
003E
ENDCHAR
STARTCHAR c114
ENCODING -1 114
SWIDTH 322 0
DWIDTH 10 0
BBX 9 14 1 0
BITMAP
F980
FB80
FB80
FF80
FF80
FC00
F800
F800
F800
F800
F800
F800
F800
F800
ENDCHAR
STARTCHAR c115
ENCODING -1 115
SWIDTH 387 0
DWIDTH 12 0
BBX 12 14 0 0
BITMAP
1FE0
7FE0
7FE0
F800
F800
FF80
7FE0
7FE0
1FF0
01F0
01F0
7FE0
7FE0
7F80
ENDCHAR
STARTCHAR c116
ENCODING -1 116
SWIDTH 322 0
DWIDTH 10 0
BBX 10 18 0 0
BITMAP
3E00
3E00
3E00
3E00
FFC0
FFC0
FFC0
3E00
3E00
3E00
3E00
3E00
3E00
3E00
3FC0
3FC0
3FC0
1F00
ENDCHAR
STARTCHAR c117
ENCODING -1 117
SWIDTH 516 0
DWIDTH 16 0
BBX 14 14 1 0
BITMAP
F87C
F87C
F87C
F87C
F87C
F87C
F87C
F87C
F87C
F8FC
FFFC
FFFC
7F7C
3E7C
ENDCHAR
STARTCHAR c118
ENCODING -1 118
SWIDTH 419 0
DWIDTH 13 0
BBX 13 14 0 0
BITMAP
F878
F878
F878
F8F0
78F0
7CF0
7CE0
7DE0
3DE0
3DC0
3FC0
1FC0
1F80
1F80
ENDCHAR
STARTCHAR c119
ENCODING -1 119
SWIDTH 709 0
DWIDTH 22 0
BBX 22 14 0 0
BITMAP
F87C3C
F87C3C
F87C3C
F87C78
78FC78
7CFE78
7CFE70
7DDEF0
3DDEF0
3DDEE0
3FDFE0
1F8FE0
1F8FC0
1F8FC0
ENDCHAR
STARTCHAR c120
ENCODING -1 120
SWIDTH 419 0
DWIDTH 13 0
BBX 13 14 0 0
BITMAP
FC78
FC78
7EF0
7EF0
3FE0
1FC0
1F80
0FC0
1FC0
3FE0
7BF0
7BF0
F1F8
F1F8
ENDCHAR
STARTCHAR c121
ENCODING -1 121
SWIDTH 419 0
DWIDTH 13 0
BBX 13 20 0 -6
BITMAP
F878
F878
F878
F8F0
78F0
7CF0
7CE0
7DE0
3DE0
3DC0
3FC0
1FC0
1F80
1F80
0F00
1F00
1F00
FE00
FE00
F800
ENDCHAR
STARTCHAR c122
ENCODING -1 122
SWIDTH 419 0
DWIDTH 13 0
BBX 13 14 0 0
BITMAP
7FF0
7FF0
7FF8
01F8
03F0
07E0
0FC0
1F80
3F00
7E00
FC00
FFF8
7FF8
7FF8
ENDCHAR
STARTCHAR c123
ENCODING -1 123
SWIDTH 354 0
DWIDTH 11 0
BBX 11 26 0 -6
BITMAP
01E0
03E0
0700
0600
0E00
0E00
0E00
0E00
0E00
0E00
0C00
1C00
F000
F000
1C00
0C00
0E00
0E00
0E00
0E00
0E00
0E00
0600
0700
03E0
01E0
ENDCHAR
STARTCHAR c124
ENCODING -1 124
SWIDTH 354 0
DWIDTH 11 0
BBX 3 24 4 -5
BITMAP
E0
E0
E0
E0
E0
E0
E0
E0
E0
E0
E0
E0
E0
E0
E0
E0
E0
E0
E0
E0
E0
E0
E0
E0
ENDCHAR
STARTCHAR c125
ENCODING -1 125
SWIDTH 354 0
DWIDTH 11 0
BBX 11 26 0 -6
BITMAP
F000
F800
1C00
0C00
0E00
0E00
0E00
0E00
0E00
0E00
0600
0700
01E0
01E0
0700
0600
0E00
0E00
0E00
0E00
0E00
0E00
0C00
1C00
F800
F000
ENDCHAR
STARTCHAR c126
ENCODING -1 126
SWIDTH 580 0
DWIDTH 18 0
BBX 16 7 1 4
BITMAP
3E03
7F03
6383
C183
C1C6
C0FE
C07C
ENDCHAR
STARTCHAR c128
ENCODING -1 128
SWIDTH 580 0
DWIDTH 18 0
BBX 18 21 0 0
BITMAP
0E0E00
0E0E00
03F800
03F800
07F800
07FC00
077C00
0F7C00
0F7E00
1E3E00
1E3E00
1E3F00
3C1F00
3FFF00
3FFF80
7FFF80
7C1F80
7C1FC0
F80FC0
F80FC0
F80FC0
ENDCHAR
STARTCHAR c129
ENCODING -1 129
SWIDTH 645 0
DWIDTH 20 0
BBX 18 21 1 0
BITMAP
1C0E00
1C0E00
03F000
0FFC00
3FFF00
3E1F00
7C0F80
7C0F80
F807C0
F807C0
F807C0
F807C0
F807C0
F807C0
F807C0
7C0F80
7C0F80
3E1F00
3FFF00
0FFC00
03F000
ENDCHAR
STARTCHAR c130
ENCODING -1 130
SWIDTH 612 0
DWIDTH 19 0
BBX 15 21 2 0
BITMAP
0E70
0E70
F81E
F81E
F81E
F81E
F81E
F81E
F81E
F81E
F81E
F81E
F81E
F81E
F81E
F81E
FC3E
7FFC
7FFC
3FF8
0FE0
ENDCHAR
STARTCHAR c131
ENCODING -1 131
SWIDTH 451 0
DWIDTH 14 0
BBX 14 19 0 0
BITMAP
3CF0
3CF0
3CF0
0000
0000
0FE0
7FF0
7FF8
70F8
00F8
0FF8
7FF8
7FF8
F8F8
F8F8
F8F8
FFFC
7F7C
3E7C
ENDCHAR
STARTCHAR c132
ENCODING -1 132
SWIDTH 483 0
DWIDTH 15 0
BBX 15 19 0 0
BITMAP
3C78
3C78
3C78
0000
0000
0FE0
3FF8
7FFC
7C7C
F83E
F83E
F83E
F83E
F83E
F83E
7C7C
7FFC
3FF8
0FE0
ENDCHAR
STARTCHAR c133
ENCODING -1 133
SWIDTH 516 0
DWIDTH 16 0
BBX 14 19 1 0
BITMAP
3CF0
3CF0
3CF0
0000
0000
F87C
F87C
F87C
F87C
F87C
F87C
F87C
F87C
F87C
F8FC
FFFC
FFFC
7F7C
3E7C
ENDCHAR
STARTCHAR c134
ENCODING -1 134
SWIDTH 451 0
DWIDTH 14 0
BBX 14 20 0 0
BITMAP
0780
0FC0
1CE0
3870
3030
0000
0FE0
7FF0
7FF8
70F8
00F8
0FF8
7FF8
7FF8
F8F8
F8F8
F8F8
FFFC
7F7C
3E7C
ENDCHAR
STARTCHAR c135
ENCODING -1 135
SWIDTH 451 0
DWIDTH 14 0
BBX 13 20 0 0
BITMAP
0780
0FC0
1CE0
3870
3030
0000
07C0
1FF0
3FF0
7C78
7878
FFF8
FFF8
FFF8
F800
F800
7C30
7FF8
3FF8
0FC0
ENDCHAR
STARTCHAR c136
ENCODING -1 136
SWIDTH 225 0
DWIDTH 7 0
BBX 7 21 0 0
BITMAP
10
38
7C
EE
C6
00
00
7C
7C
7C
7C
7C
7C
7C
7C
7C
7C
7C
7C
7C
7C
ENDCHAR
STARTCHAR c137
ENCODING -1 137
SWIDTH 483 0
DWIDTH 15 0
BBX 15 20 0 0
BITMAP
07C0
0FE0
1C70
3838
3018
0000
0FE0
3FF8
7FFC
7C7C
F83E
F83E
F83E
F83E
F83E
F83E
7C7C
7FFC
3FF8
0FE0
ENDCHAR
STARTCHAR c138
ENCODING -1 138
SWIDTH 516 0
DWIDTH 16 0
BBX 14 20 1 0
BITMAP
0780
0FC0
1CE0
3870
3030
0000
F87C
F87C
F87C
F87C
F87C
F87C
F87C
F87C
F87C
F8FC
FFFC
FFFC
7F7C
3E7C
ENDCHAR
STARTCHAR c139
ENCODING -1 139
SWIDTH 451 0
DWIDTH 14 0
BBX 14 20 0 0
BITMAP
1E00
0E00
0700
0300
0180
0000
0FE0
7FF0
7FF8
70F8
00F8
0FF8
7FF8
7FF8
F8F8
F8F8
F8F8
FFFC
7F7C
3E7C
ENDCHAR
STARTCHAR c140
ENCODING -1 140
SWIDTH 451 0
DWIDTH 14 0
BBX 13 20 0 0
BITMAP
1E00
0E00
0700
0300
0180
0000
07C0
1FF0
3FF0
7C78
7878
FFF8
FFF8
FFF8
F800
F800
7C30
7FF8
3FF8
0FC0
ENDCHAR
STARTCHAR c141
ENCODING -1 141
SWIDTH 225 0
DWIDTH 7 0
BBX 6 20 0 0
BITMAP
F0
70
38
18
0C
00
7C
7C
7C
7C
7C
7C
7C
7C
7C
7C
7C
7C
7C
7C
ENDCHAR
STARTCHAR c142
ENCODING -1 142
SWIDTH 483 0
DWIDTH 15 0
BBX 15 20 0 0
BITMAP
1E00
0E00
0700
0300
0180
0000
0FE0
3FF8
7FFC
7C7C
F83E
F83E
F83E
F83E
F83E
F83E
7C7C
7FFC
3FF8
0FE0
ENDCHAR
STARTCHAR c143
ENCODING -1 143
SWIDTH 516 0
DWIDTH 16 0
BBX 14 20 1 0
BITMAP
1E00
0E00
0700
0300
0180
0000
F87C
F87C
F87C
F87C
F87C
F87C
F87C
F87C
F87C
F8FC
FFFC
FFFC
7F7C
3E7C
ENDCHAR
STARTCHAR c144
ENCODING -1 144
SWIDTH 451 0
DWIDTH 14 0
BBX 13 20 0 0
BITMAP
00F0
00E0
01C0
0180
0300
0000
07C0
1FF0
3FF0
7C78
7878
FFF8
FFF8
FFF8
F800
F800
7C30
7FF8
3FF8
0FC0
ENDCHAR
STARTCHAR c145
ENCODING -1 145
SWIDTH 451 0
DWIDTH 14 0
BBX 13 19 0 0
BITMAP
3CF0
3CF0
3CF0
0000
0000
07C0
1FF0
3FF0
7C78
7878
FFF8
FFF8
FFF8
F800
F800
7C30
7FF8
3FF8
0FC0
ENDCHAR
STARTCHAR c146
ENCODING -1 146
SWIDTH 225 0
DWIDTH 7 0
BBX 7 19 0 0
BITMAP
EE
EE
EE
00
00
7C
7C
7C
7C
7C
7C
7C
7C
7C
7C
7C
7C
7C
7C
ENDCHAR
STARTCHAR c147
ENCODING -1 147
SWIDTH 354 0
DWIDTH 11 0
BBX 11 20 0 -6
BITMAP
07C0
1FC0
3FC0
7C00
7800
F800
F800
F800
F800
F800
7C40
7FE0
3FE0
0F80
0000
0780
0780
0380
0300
0600
ENDCHAR
STARTCHAR c148
ENCODING -1 148
SWIDTH 451 0
DWIDTH 14 0
BBX 14 20 0 0
BITMAP
00F0
00E0
01C0
0180
0300
0000
0FE0
7FF0
7FF8
70F8
00F8
0FF8
7FF8
7FF8
F8F8
F8F8
F8F8
FFFC
7F7C
3E7C
ENDCHAR
STARTCHAR c149
ENCODING -1 149
SWIDTH 516 0
DWIDTH 16 0
BBX 14 20 1 0
BITMAP
1E18
3F18
63F0
61E0
0000
0000
F9F0
FBF8
FFFC
FFFC
FC7C
F87C
F87C
F87C
F87C
F87C
F87C
F87C
F87C
F87C
ENDCHAR
STARTCHAR c155
ENCODING -1 155
SWIDTH 483 0
DWIDTH 15 0
BBX 15 2 0 6
BITMAP
FFFE
FFFE
ENDCHAR
STARTCHAR c159
ENCODING -1 159
SWIDTH 516 0
DWIDTH 16 0
BBX 0 0 0 0
BITMAP
ENDCHAR
STARTCHAR c171
ENCODING -1 171
SWIDTH 516 0
DWIDTH 16 0
BBX 15 21 1 0
BITMAP
0FE0
3FF0
7FF8
7C78
F878
F878
F8F0
F9E0
FBC0
FBC0
FBE0
FBF8
F9FC
F87C
F83E
F83E
F83E
F87E
F9FC
F9FC
F9F0
ENDCHAR
ENDFONT
